<?xml version="1.0" ?><svg height="512px" version="1.1" viewBox="0 0 512 512" width="512px" xmlns="http://www.w3.org/2000/svg" xmlns:xlink="http://www.w3.org/1999/xlink"><title/><desc/><defs/><g fill="none" fill-rule="evenodd" id="SVG" stroke="none" stroke-width="1"><g id="Cherry"><g transform="translate(5.000000, 0.000000)"><path d="M228.37543,387.842576 C228.37543,447.115275 180.320933,495.169771 121.048235,495.169771 C61.7618224,495.169771 13.7210399,447.115275 13.7210399,387.842576 C13.7210399,328.569878 61.7618224,297.315255 121.048235,297.315255 C180.320933,297.315255 228.37543,328.569878 228.37543,387.842576" fill="#E34361" id="Fill-1"/><path d="M180.816015,310.223044 C194.927909,324.965791 203.403274,344.782785 203.403274,369.564314 C203.403274,428.837012 155.348778,476.891508 96.0760793,476.891508 C77.9322154,476.891508 60.871772,472.352114 45.8958843,464.411602 C65.2603105,483.419459 91.7698259,495.172514 121.049606,495.172514 C180.322305,495.172514 228.376801,447.118017 228.376801,387.845319 C228.376801,350.693598 209.492371,324.56808 180.816015,310.223044" fill="#BC395B" id="Fill-3"/><g fill="#454849" id="Group-7" transform="translate(0.000000, 280.301599)"><path d="M121.044121,30.7237247 C77.8581588,30.7237247 27.4311085,50.8424309 27.4311085,107.550577 C27.4311085,159.157047 69.4239364,201.163589 121.044121,201.163589 C172.664305,201.163589 214.657133,159.157047 214.657133,107.550577 C214.657133,50.8424309 164.230082,30.7237247 121.044121,30.7237247 M121.044121,228.591955 C54.2971927,228.591955 0.00274283657,174.297505 0.00274283657,107.550577 C0.00274283657,45.1921876 48.6469494,3.295359 121.044121,3.295359 C193.441292,3.295359 242.085498,45.1921876 242.085498,107.550577 C242.085498,174.297505 187.791048,228.591955 121.044121,228.591955" id="Fill-5"/></g><path d="M121.044121,375.833066 C92.1757657,375.833066 79.4215757,360.774894 78.0638716,359.046907 C73.3599069,353.12238 74.3747564,344.496159 80.3129976,339.792194 C86.2375245,335.088229 94.8774597,336.103079 99.5814244,342.04132 C99.6088528,342.04132 105.725378,348.404701 121.044121,348.404701 C136.458862,348.404701 142.547959,341.959035 142.808529,341.684751 C147.800491,336.253935 156.358141,335.527083 161.980956,340.313333 C167.603771,345.099583 168.604907,353.259522 164.02437,359.046907 C162.666666,360.774894 149.912475,375.833066 121.044121,375.833066" fill="#454849" id="Fill-8"/><path d="M97.1649854,400.233341 C68.3926298,400.233341 53.0053167,379.51121 52.3333217,378.606074 C49.0007753,374.011823 50.0156248,367.579871 54.6098761,364.247325 C59.2041273,360.942207 65.5949365,361.915914 68.9411971,366.455308 C69.4760503,367.168446 80.0222569,380.676916 98.9066866,379.620924 C104.598073,379.003786 109.384322,383.776321 109.631178,389.453993 C109.878033,395.11795 105.47578,399.931629 99.7981085,400.16477 C98.9066866,400.205912 98.0289789,400.233341 97.1649854,400.233341" fill="#FEFEFE" id="Fill-10"/><path d="M482.875006,387.842576 C482.875006,447.115275 434.82051,495.169771 375.547811,495.169771 C316.261399,495.169771 268.220617,447.115275 268.220617,387.842576 C268.220617,328.569878 316.261399,297.315255 375.547811,297.315255 C434.82051,297.315255 482.875006,328.569878 482.875006,387.842576" fill="#E34361" id="Fill-12"/><path d="M435.315592,310.223044 C449.427486,324.965791 457.902851,344.782785 457.902851,369.564314 C457.902851,428.837012 409.848354,476.891508 350.575656,476.891508 C332.431792,476.891508 315.371349,472.352114 300.395461,464.411602 C319.759887,483.419459 346.269403,495.172514 375.549183,495.172514 C434.821881,495.172514 482.876378,447.118017 482.876378,387.845319 C482.876378,350.693598 463.991948,324.56808 435.315592,310.223044" fill="#BC395B" id="Fill-14"/><g fill="#454849" id="Group-18" transform="translate(251.408559, 280.301599)"><path d="M124.137881,30.7237247 C80.9519193,30.7237247 30.524869,50.8424309 30.524869,107.550577 C30.524869,159.157047 72.5176969,201.163589 124.137881,201.163589 C175.758065,201.163589 217.750893,159.157047 217.750893,107.550577 C217.750893,50.8424309 167.323843,30.7237247 124.137881,30.7237247 M124.137881,228.591955 C57.3909532,228.591955 3.09650335,174.297505 3.09650335,107.550577 C3.09650335,45.1921876 51.7407099,3.295359 124.137881,3.295359 C196.535052,3.295359 245.179259,45.1921876 245.179259,107.550577 C245.179259,174.297505 190.884809,228.591955 124.137881,228.591955" id="Fill-16"/></g><path d="M375.54644,375.833066 C346.678085,375.833066 333.923895,360.774894 332.566191,359.046907 C327.862226,353.12238 328.877076,344.496159 334.815317,339.792194 C340.753558,335.088229 349.379779,336.103079 354.083744,342.04132 C354.111172,342.04132 360.227698,348.404701 375.54644,348.404701 C390.961182,348.404701 397.050279,341.959035 397.297134,341.684751 C402.289097,336.253935 410.860461,335.527083 416.483276,340.313333 C422.092377,345.099583 423.093512,353.259522 418.526689,359.046907 C417.168985,360.76118 404.414795,375.833066 375.54644,375.833066" fill="#454849" id="Fill-19"/><path d="M351.667305,400.233341 C322.881235,400.233341 307.493922,379.51121 306.835641,378.606074 C303.503095,374.011823 304.517944,367.579871 309.112196,364.247325 C313.706447,360.942207 320.097256,361.915914 323.429802,366.455308 C323.923513,367.099875 334.195436,380.36149 353.409006,379.620924 C359.251248,379.003786 363.886642,383.776321 364.133497,389.453993 C364.380352,395.11795 359.9781,399.931629 354.300428,400.16477 C353.409006,400.205912 352.531298,400.233341 351.667305,400.233341" fill="#FEFEFE" id="Fill-21"/><path d="M121.044121,370.047053 L121.016692,370.047053 C113.446463,370.033339 107.316224,363.87567 107.329938,356.305442 C107.412223,317.398305 127.997211,292.836203 147.910205,269.096953 C177.066557,234.317785 207.224046,198.331769 188.915611,107.310738 C187.420766,99.8776508 192.234444,92.6502764 199.653817,91.1554305 C207.07319,89.6057278 214.314278,94.4742628 215.809124,101.893636 C236.723253,205.860856 199.132678,250.692519 168.934047,286.719678 C149.871333,309.444079 134.81316,327.409658 134.758303,356.360298 C134.744589,363.930527 128.600635,370.047053 121.044121,370.047053" fill="#454849" id="Fill-23"/><path d="M375.532726,375.833066 C369.320201,375.833066 363.697386,371.58167 362.20254,365.259432 C361.530545,362.406881 292.932203,79.7712873 147.80872,102.824829 C140.416775,104.072819 133.299114,98.9162866 132.10598,91.4283427 C130.926561,83.9403989 136.041951,76.9187373 143.516181,75.7393176 C313.640619,48.8732334 385.900648,346.292717 388.89034,358.978336 C390.632041,366.342852 386.065218,373.721082 378.700702,375.462784 C377.64471,375.709639 376.575004,375.833066 375.532726,375.833066" fill="#454849" id="Fill-25"/><path d="M388.753198,46.2977099 C237.51319,-46.5061654 212.032238,88.6196781 212.032238,88.6196781 C212.032238,88.6196781 295.949323,197.537718 388.753198,46.2977099" fill="#3BB777" id="Fill-27"/><path d="M388.753198,46.2977099 L212.032238,88.6196781 C212.032238,88.6196781 295.949323,197.537718 388.753198,46.2977099" fill="#229857" id="Fill-29"/><path d="M227.141153,84.9950196 C236.206228,94.4166632 259.204913,114.590226 287.661842,112.738811 C315.419348,111.189109 342.902571,90.4121218 369.494371,50.9152752 C327.899255,27.7657346 293.98408,21.6766374 268.516843,32.8399822 C242.199326,44.4010384 230.96741,72.4739706 227.141153,84.9950196 M284.274439,140.276891 C235.109094,140.276891 202.565338,98.8052017 201.166491,96.9812154 C198.780223,93.8818101 197.833945,89.904697 198.560796,86.0647258 C198.99965,83.7333148 209.847569,28.8217267 257.23007,7.83902691 C293.860653,-8.39856557 340.516303,0.611652555 395.921602,34.6091118 C402.380982,38.5725107 404.396967,47.0204473 400.447282,53.4798274 C366.449823,108.857698 328.927818,138.027765 288.923547,140.139749 C287.36013,140.235748 285.810427,140.276891 284.274439,140.276891" fill="#454849" id="Fill-31"/></g></g></g></svg>